<svg width="340" height="95" viewBox="0 0 340 95" fill="none" xmlns="http://www.w3.org/2000/svg">
<path d="M49.92 0L43.776 11.392L0 94.72H11.776L49.792 22.272L88.064 94.72H99.584L49.92 0Z" fill="black"/>
<path d="M155.997 24.704V78.464L107.037 29.984L100.125 23.072V94.208H107.421V40.544L156.285 89.024L161.565 94.208H163.197V24.704H155.997Z" fill="black"/>
<path d="M216.047 79.424C210.767 84.32 203.183 86.816 193.199 86.816H173.327V32.192H193.199C195.503 32 198.287 32.192 201.455 32.864C207.503 33.92 212.399 36.128 216.047 39.488C220.943 44.192 223.439 50.816 223.439 59.456C223.439 68.192 220.943 74.816 216.047 79.424ZM221.039 34.112C216.431 29.792 210.671 27.008 203.855 25.568C201.071 25.088 197.423 24.8 192.911 24.8H166.031V94.208H192.911C196.079 94.4 199.631 94.112 203.375 93.344C210.575 91.904 216.431 89.12 221.039 84.896C227.567 78.848 230.831 70.304 230.831 59.456C230.831 48.608 227.567 40.16 221.039 34.112Z" fill="black"/>
<path d="M282.775 50.24C282.775 39.776 278.359 32.384 269.527 28.064C265.111 25.856 260.695 24.8 256.279 24.8H233.719V94.208H241.015V32H256.279C259.639 32 262.999 32.768 266.167 34.4C272.311 37.376 275.383 42.656 275.383 50.24C275.383 57.728 272.311 63.008 266.167 66.08C262.999 67.712 259.639 68.48 256.279 68.48H243.703L250.711 75.296L270.199 94.208H280.855L261.175 75.2C265.111 74.72 269.143 73.088 273.175 70.304C279.607 65.792 282.775 59.072 282.775 50.24Z" fill="black"/>
<path d="M339.227 31.904V24.608H292.858V24.512H285.562V94.208H339.227V87.008H292.858V75.104H339.227V67.808H292.858V31.904H339.227ZM323.003 9.15201H314.651L306.01 23.456H313.979L323.003 9.15201Z" fill="black"/>
</svg>
