<svg width="374" height="95" viewBox="0 0 374 95" fill="none" xmlns="http://www.w3.org/2000/svg">
<path d="M84.864 0.735962H75.392V46.304C75.264 56.672 71.936 65.376 65.536 72.672C59.136 79.968 51.456 83.552 42.496 83.552C33.408 83.552 25.728 79.968 19.328 72.672C12.8 65.376 9.6 56.544 9.472 46.176V0.735962H0V46.176C0.128 59.36 4.224 70.496 12.544 79.712C20.864 89.056 30.848 93.792 42.496 93.792C54.144 93.792 64 89.184 72.32 79.84C80.512 70.496 84.736 59.36 84.864 46.304V0.735962Z" fill="black"/>
<path d="M120.593 77.408L88.625 20.192V93.152H96.113V50.72L120.305 94.4L144.689 50.24V93.152H152.273L152.177 20.288L120.593 77.408Z" fill="black"/>
<path d="M162.2 86.048V49.568H182.552C185.912 49.568 189.272 50.336 192.44 51.968C198.584 54.944 201.656 60.224 201.656 67.808C201.656 75.296 198.584 80.576 192.44 83.648C189.272 85.184 185.912 85.952 182.552 86.048H162.2ZM184.28 30.944C185.816 30.944 187.256 31.232 188.6 31.808C190.904 32.768 192.056 34.4 192.056 36.704C191.96 37.76 191.576 38.816 190.904 39.776C189.656 41.408 187.448 42.272 184.28 42.272H162.2V30.944H184.28ZM195.992 45.632C198.296 44.096 199.448 41.12 199.448 36.704C199.448 32 197.528 28.544 193.688 26.144C190.904 24.416 187.736 23.552 184.28 23.552H155V93.152H182.552C186.872 93.152 191.288 92.096 195.8 89.888C204.632 85.664 209.048 78.272 209.048 67.808C209.048 56.48 204.728 49.088 195.992 45.632Z" fill="black"/>
<path d="M265.38 66.752H224.676V74.048H265.38V66.752ZM265.573 23.552H211.812V93.152H265.573V85.856H219.301V30.944H265.573V23.552Z" fill="black"/>
<path d="M317.4 49.184C317.4 38.72 312.984 31.328 304.152 27.008C299.736 24.8 295.32 23.744 290.904 23.744H268.344V93.152H275.64V30.944H290.904C294.264 30.944 297.624 31.712 300.792 33.344C306.936 36.32 310.008 41.6 310.008 49.184C310.008 56.672 306.936 61.952 300.792 65.024C297.624 66.656 294.264 67.424 290.904 67.424H278.328L285.336 74.24L304.824 93.152H315.48L295.8 74.144C299.736 73.664 303.768 72.032 307.8 69.248C314.232 64.736 317.4 58.016 317.4 49.184Z" fill="black"/>
<path d="M373.083 23.744H320.188V30.944H342.94V93.152H350.236V30.944H373.083V23.744Z" fill="black"/>
</svg>
